OpenSim_Sub02_EMGStiffKnee_GRF.mot
version=1
nRows=46
nColumns=19
inDegrees=no
endheader
time	lFx	lFy	lFz	lCOPx	lCOPy	lCOPz	rFx	rFy	rFz	rCOPx	rCOPy	rCOPz	lMx	lMy	lMz	rMx	rMy	rMz
59.17000000	-6.97965003	28.59630758	-1.18753037	0.32770551	0	-0.38557554	-119.72274445	537.80806572	-56.71426288	1.07489105	0	-0.42987804	0	-0.61275242	0	0	-1.74919711	0.00000000
59.18000000	-6.98195918	13.31306271	-1.65189033	0.17785784	0	-0.19351876	-118.77071376	550.63433250	-52.34557966	1.07176998	0	-0.42999487	0	-0.50382942	0	0	-1.66286980	0
59.19000000	-4.49668901	3.58324789	-2.11761650	0.05833709	0	-0.05556625	-115.87069094	563.27843770	-48.50276526	1.06753337	0	-0.43013157	0	-0.24921258	0	0	-1.46997703	0
59.20000000	-2.26935348	-0.69298920	-2.43492540	0.00015488	0	0.00621043	-111.43971849	573.40336718	-45.79140055	1.06274197	0	-0.43005595	0	-0.06816608	0	0	-1.30467476	-0.00000000
59.21000000	-1.13080394	-1.51111242	-2.59096718	-0.01525979	0	0.01966388	-106.15720396	577.85935326	-44.89232124	1.05794556	0	-0.42970504	0	0.01073396	0	0	-1.23161801	0
59.22000000	-0.81609618	-1.01993156	-2.65996456	-0.01235073	0	0.01422478	-100.37775843	573.96287192	-45.41541715	1.05344688	0	-0.42914289	0	0.02663580	0	0	-1.26841693	0
59.23000000	-0.90691633	-0.37643356	-2.69196086	-0.00593884	0	0.00628917	-94.25752545	561.53944295	-46.11677345	1.04900553	0	-0.42850275	0	0.01865600	0	0	-1.29950704	0
59.24000000	-1.10841162	0.04835528	-2.73179556	-0.00153365	0	0.00132202	-88.09514910	543.25300195	-46.29641673	1.04440561	0	-0.42791807	0	0.00802515	0	0	-1.18309973	0
59.25000000	-1.31482172	0.18955487	-2.76358371	0.00032901	0	-0.00059212	-82.25569578	522.90343316	-45.85705129	1.03973905	0	-0.42743836	0	0.00155386	0	0	-1.01088466	0
59.26000000	-1.50192317	0.17778635	-2.81927214	0.00066984	0	-0.00082629	-77.01090646	503.72928301	-45.03939051	1.03528650	0	-0.42706311	0	-0.00086287	0	0	-0.89418862	-0.00000000
59.27000000	-1.63035104	0.15965662	-2.90788349	0.00045358	0	-0.00051039	-72.49402552	487.65300740	-44.24216740	1.03114343	0	-0.42676348	0	-0.00110587	0	0	-0.81819211	0
59.28000000	-1.69331050	0.19534481	-3.00337317	0.00018931	0	-0.00019386	-68.57990789	475.24805102	-43.56981592	1.02696924	0	-0.42645292	0	-0.00066481	0	0	-0.80916482	-0.00000000
59.29000000	-1.72441041	0.25968624	-3.13003866	0.00003333	0	-0.00002193	-65.17077198	466.30236495	-43.09074789	1.02227095	0	-0.42614867	0	-0.00024540	0	0	-0.87282393	0
59.30000000	-1.79093656	0.30340868	-3.25552208	-0.00002259	0	0.00003313	-62.23357215	460.32093789	-42.86463964	1.01685266	0	-0.42593550	0	-0.00002392	0	0	-0.92046208	0
59.31000000	-1.90739283	0.31436363	-3.38056764	-0.00002651	0	0.00003216	-59.78074871	456.75757935	-42.64452987	1.01094759	0	-0.42583915	0	0.00004438	0	0	-0.94414590	0.00000000
59.32000000	-2.03523913	0.34423156	-3.51767292	-0.00001560	0	0.00001728	-57.81386318	455.17289020	-42.18422036	1.00464898	0	-0.42586242	0	0.00004375	0	0	-0.94070614	0
59.33000000	-2.16418257	0.39247518	-3.60552499	-0.00000803	0	0.00000700	-56.14547223	455.12657600	-41.55709271	0.99830473	0	-0.42602157	0	0.00003258	0	0	-0.88139617	0
59.34000000	-2.27251824	0.38138464	-3.61865850	-0.00000917	0	0.00000554	-54.58083663	456.03528308	-40.82636062	0.99207933	0	-0.42630871	0	0.00003602	0	0	-0.79340936	0.00000000
59.35000000	-2.31608275	0.35014209	-3.59867082	-0.00001685	0	0.00001039	-52.90411400	457.26652412	-40.10357268	0.98599752	0	-0.42668963	0	0.00005143	0	0	-0.70130629	0
59.36000000	-2.30388507	0.30501053	-3.55072850	-0.00002076	0	0.00001378	-51.01978909	458.55448867	-39.61149689	0.97987993	0	-0.42706162	0	0.00004607	0	0	-0.57897865	-0.00000000
59.37000000	-2.25378617	0.22813285	-3.47448403	0.00000224	0	-0.00000007	-48.93896603	460.06780956	-39.38839775	0.97339298	0	-0.42734165	0	-0.00005078	0	0	-0.46022741	0.00000000
59.38000000	-2.18560929	0.14961654	-3.41268302	0.00008812	0	-0.00005556	-46.90281696	462.36128978	-39.49258474	0.96663239	0	-0.42756688	0	-0.00033399	0	0	-0.36348731	-0.00000000
59.39000000	-2.12868833	0.09256232	-3.36188391	0.00026265	0	-0.00017140	-45.32547345	466.32807792	-39.95479163	0.96001767	0	-0.42777159	0	-0.00083320	0	0	-0.29571892	0.00000000
59.40000000	-2.09196192	0.06370787	-3.31429833	0.00046984	0	-0.00031421	-44.61334923	472.63661593	-40.55555409	0.95364357	0	-0.42795875	0	-0.00128442	0	0	-0.27452834	0
59.41000000	-2.05324933	0.04499329	-3.28292575	0.00044131	0	-0.00031121	-44.67003273	480.97034255	-41.13596159	0.94731484	0	-0.42816552	0	-0.00077022	0	0	-0.23210338	0
59.42000000	-1.99000663	-0.04890052	-3.22033001	-0.00043178	0	0.00023964	-44.83658031	490.08262104	-41.59371855	0.94114597	0	-0.42838020	0	0.00251437	0	0	-0.12925857	-0.00000000
59.43000000	-1.93177693	-0.25669140	-3.13652323	-0.00299425	0	0.00191318	-44.64714456	498.58466729	-41.88475319	0.93515470	0	-0.42855087	0	0.01061190	0	0	-0.02250696	-0.00000000
59.44000000	-2.02201459	-0.20644254	-3.00826556	-0.00752180	0	0.00494356	-43.85409856	505.46780762	-42.21514191	0.92907799	0	-0.42868764	0	0.02292632	0	0	0.07679505	0
59.45000000	-2.52432645	0.78219766	-2.78293459	-0.01165432	0	0.00786712	-42.17986220	510.26422300	-42.73213851	0.92257266	0	-0.42875192	0	0.02988947	0	0	0.17448730	-0.00000000
59.46000000	-3.77541148	3.30494731	-2.46667590	-0.00712721	0	0.00531904	-39.39973052	512.65089198	-43.40614814	0.91562344	0	-0.42871960	0	0.00449393	0	0	0.22488950	0
59.47000000	-5.86898864	7.30989226	-2.10539305	0.02239066	0	-0.01356096	-35.61413194	512.20559816	-44.27386892	0.90853276	0	-0.42865709	0	-0.09959099	0	0	0.26254280	0
59.48000000	-8.22438670	11.63205886	-1.75419046	0.09551549	0	-0.06165029	-31.10737982	508.36890255	-45.22368927	0.90151332	0	-0.42862394	0	-0.32167564	0	0	0.35161201	0.00000000
59.49000000	-10.46364387	15.42704286	-1.48494131	0.21038932	0	-0.13935209	-26.09599119	500.59639205	-45.87660021	0.89468996	0	-0.42864102	0	-0.61228009	0	0	0.45309900	0
59.50000000	-12.89650293	19.06230185	-1.29099976	0.34089720	0	-0.23353627	-20.63776041	488.61630142	-45.98642247	0.88793690	0	-0.42876594	0	-0.78196506	0	0	0.59463568	0
59.51000000	-16.45540704	24.04637901	-0.89250673	0.46509578	0	-0.33265153	-14.73384638	473.26317812	-45.43608438	0.88110683	0	-0.42904056	0	-0.61669238	0	0	0.77300326	0
59.52000000	-22.26040859	32.79218798	0.04009498	0.57718845	0	-0.43109438	-8.51078249	456.25809245	-44.29474439	0.87440330	0	-0.42944968	0	0.00496668	0	0	0.93766590	0
59.53000000	-30.84320645	48.45943952	2.08482384	0.67746042	0	-0.52265419	-2.09801196	438.86388811	-42.72206855	0.86816867	0	-0.42993328	0	0.82727672	0	0	1.13182594	0.00000000
59.54000000	-40.87017588	74.26979645	5.74015639	0.75734886	0	-0.59106819	4.46997057	421.16018202	-40.65343699	0.86248043	0	-0.43041782	0	1.33554119	0	0	1.37389224	0.00000000
59.55000000	-48.03903453	111.85156699	10.62371612	0.80570036	0	-0.62750712	11.15995590	401.69261121	-38.02919111	0.85673331	0	-0.43093690	0	1.45490944	0	0	1.63183259	-0.00000000
59.56000000	-46.72248657	158.79257594	15.02011847	0.82550302	0	-0.64006895	17.58780447	378.32881073	-34.82147030	0.85055539	0	-0.43146373	0	1.82993397	0	0	1.88974714	0.00000000
59.57000000	-38.10942780	210.04582146	17.63146832	0.82432112	0	-0.64054749	22.75818068	349.89146285	-30.94385513	0.84453810	0	-0.43191762	0	2.93048652	0	0	2.05060398	0
59.58000000	-28.74595422	262.98585498	20.49906170	0.81181028	0	-0.63746479	25.50264550	316.22909134	-26.46192849	0.83982425	0	-0.43252970	0	4.00002534	0	0	2.05649072	0
59.59000000	-21.83088158	314.59833946	24.94127484	0.79764167	0	-0.63497080	25.24810159	277.50776630	-21.74245304	0.83806675	0	-0.43408242	0	4.39784530	0	0	1.94093032	0.00000000
59.60000000	-16.10398418	361.80187967	29.92508040	0.78629969	0	-0.63403299	22.13808847	234.21676965	-17.28586191	0.84109279	0	-0.43777168	0	4.31615949	0	0	1.68676937	0
59.61000000	-10.60591165	404.26985902	34.71403403	0.77735738	0	-0.63422656	16.69421131	188.13402142	-13.71453861	0.84988618	0	-0.44430197	0	3.92398600	0	0	1.30156106	0
59.62000000	-5.10203856	442.80376791	39.14027121	0.76926933	0	-0.63487256	9.61479961	142.75648771	-11.31397247	0.86077460	0	-0.45140346	0	3.24270165	0	0	0.89082331	0.00000000
